<svg xmlns="http://www.w3.org/2000/svg" width="500" zoomAndPan="magnify"
     viewBox="0 0 375 374.999991" height="500" preserveAspectRatio="xMidYMid meet" version="1.0">
    <defs>
        <g/>
        <clipPath id="a81fc73d85">
            <path d="M 20 114 L 357 114 L 357 310 L 20 310 Z M 20 114 " clip-rule="nonzero"/>
        </clipPath>
        <clipPath id="14ea6b9e24">
            <path d="M 74.832031 26.03125 L 379.222656 143.441406 L 299.867188 349.167969 L -4.523438 231.757812 Z M 74.832031 26.03125 "
                  clip-rule="nonzero"/>
        </clipPath>
        <clipPath id="dc5b618bfb">
            <path d="M 74.832031 26.03125 L 379.222656 143.441406 L 299.867188 349.167969 L -4.523438 231.757812 Z M 74.832031 26.03125 "
                  clip-rule="nonzero"/>
        </clipPath>
        <clipPath id="b2132f8570">
            <path d="M 354.050781 190.382812 C 361.625 164.632812 348.683594 136.785156 324.234375 125.832031 C 305.363281 117.308594 284.476562 120.46875 269.257812 131.914062 C 261.671875 137.574219 251.179688 137.128906 243.808594 131.101562 C 238.132812 126.417969 231.484375 122.46875 224.25 119.679688 C 203.03125 111.492188 180.289062 114.078125 161.988281 124.886719 C 151.386719 131.1875 138.234375 130.820312 127.597656 124.640625 C 122.976562 121.890625 117.886719 119.648438 112.5625 118.011719 C 78.039062 107.328125 40.625 124.613281 26.199219 157.695312 C 9.769531 195.265625 28.136719 238.5 65.996094 253.101562 C 81.667969 259.148438 98.109375 259.257812 112.886719 254.707031 C 127.828125 250.082031 143.796875 256.796875 150.882812 270.75 C 159.171875 286.964844 173.613281 300.152344 192.554688 306.351562 C 227.371094 317.703125 265.773438 300.382812 280.261719 266.773438 C 281.917969 262.839844 283.238281 259.054688 284.242188 255.011719 C 287.53125 241.457031 298.15625 231.152344 311.898438 228.558594 C 331.125 225.03125 348.015625 211.046875 354.050781 190.382812 Z M 354.050781 190.382812 "
                  clip-rule="nonzero"/>
        </clipPath>
        <clipPath id="4d3a293973">
            <path d="M 121 89 L 153 89 L 153 120 L 121 120 Z M 121 89 " clip-rule="nonzero"/>
        </clipPath>
        <clipPath id="218c4c3d4d">
            <path d="M 74.832031 26.03125 L 379.222656 143.441406 L 299.867188 349.167969 L -4.523438 231.757812 Z M 74.832031 26.03125 "
                  clip-rule="nonzero"/>
        </clipPath>
        <clipPath id="ba2df17901">
            <path d="M 74.832031 26.03125 L 379.222656 143.441406 L 299.867188 349.167969 L -4.523438 231.757812 Z M 74.832031 26.03125 "
                  clip-rule="nonzero"/>
        </clipPath>
        <clipPath id="3b5c217e91">
            <path d="M 151.390625 109.996094 C 151.027344 110.9375 150.574219 111.835938 150.035156 112.6875 C 149.496094 113.542969 148.875 114.332031 148.179688 115.066406 C 147.484375 115.796875 146.722656 116.453125 145.898438 117.035156 C 145.070312 117.617188 144.199219 118.109375 143.273438 118.519531 C 142.351562 118.929688 141.398438 119.246094 140.410156 119.464844 C 139.425781 119.6875 138.429688 119.808594 137.421875 119.835938 C 136.410156 119.859375 135.410156 119.785156 134.414062 119.613281 C 133.417969 119.441406 132.449219 119.171875 131.507812 118.808594 C 130.566406 118.445312 129.667969 117.992188 128.816406 117.453125 C 127.960938 116.914062 127.171875 116.296875 126.4375 115.597656 C 125.707031 114.902344 125.050781 114.140625 124.46875 113.316406 C 123.886719 112.492188 123.394531 111.617188 122.984375 110.695312 C 122.574219 109.769531 122.257812 108.816406 122.039062 107.832031 C 121.816406 106.84375 121.695312 105.847656 121.667969 104.839844 C 121.644531 103.828125 121.71875 102.828125 121.890625 101.832031 C 122.0625 100.835938 122.332031 99.867188 122.695312 98.925781 C 123.058594 97.984375 123.507812 97.085938 124.050781 96.234375 C 124.589844 95.382812 125.207031 94.589844 125.90625 93.859375 C 126.601562 93.125 127.363281 92.46875 128.1875 91.886719 C 129.011719 91.308594 129.886719 90.8125 130.808594 90.402344 C 131.734375 89.992188 132.6875 89.679688 133.671875 89.457031 C 134.65625 89.234375 135.65625 89.113281 136.664062 89.085938 C 137.675781 89.0625 138.675781 89.136719 139.671875 89.308594 C 140.667969 89.480469 141.632812 89.75 142.578125 90.113281 C 143.519531 90.476562 144.417969 90.929688 145.269531 91.46875 C 146.121094 92.007812 146.914062 92.628906 147.644531 93.324219 C 148.378906 94.019531 149.035156 94.78125 149.617188 95.605469 C 150.195312 96.429688 150.691406 97.304688 151.101562 98.230469 C 151.511719 99.152344 151.824219 100.105469 152.046875 101.089844 C 152.269531 102.078125 152.390625 103.074219 152.417969 104.082031 C 152.441406 105.09375 152.367188 106.09375 152.195312 107.089844 C 152.023438 108.085938 151.753906 109.054688 151.390625 109.996094 Z M 151.390625 109.996094 "
                  clip-rule="nonzero"/>
        </clipPath>
        <clipPath id="81854ad435">
            <path d="M 221 86 L 240 86 L 240 105 L 221 105 Z M 221 86 " clip-rule="nonzero"/>
        </clipPath>
        <clipPath id="a64febaf56">
            <path d="M 74.832031 26.03125 L 379.222656 143.441406 L 299.867188 349.167969 L -4.523438 231.757812 Z M 74.832031 26.03125 "
                  clip-rule="nonzero"/>
        </clipPath>
        <clipPath id="1fb97e5a89">
            <path d="M 74.832031 26.03125 L 379.222656 143.441406 L 299.867188 349.167969 L -4.523438 231.757812 Z M 74.832031 26.03125 "
                  clip-rule="nonzero"/>
        </clipPath>
        <clipPath id="65fdd6299a">
            <path d="M 238.828125 99.121094 C 238.613281 99.683594 238.34375 100.21875 238.019531 100.730469 C 237.699219 101.238281 237.328125 101.710938 236.914062 102.148438 C 236.5 102.582031 236.042969 102.976562 235.550781 103.320312 C 235.058594 103.667969 234.539062 103.964844 233.988281 104.207031 C 233.4375 104.453125 232.867188 104.640625 232.277344 104.773438 C 231.691406 104.90625 231.097656 104.976562 230.492188 104.992188 C 229.890625 105.007812 229.292969 104.964844 228.699219 104.859375 C 228.105469 104.757812 227.527344 104.597656 226.964844 104.382812 C 226.402344 104.164062 225.867188 103.894531 225.359375 103.574219 C 224.851562 103.25 224.378906 102.882812 223.941406 102.464844 C 223.503906 102.050781 223.113281 101.597656 222.765625 101.105469 C 222.417969 100.609375 222.125 100.089844 221.878906 99.539062 C 221.636719 98.988281 221.449219 98.417969 221.316406 97.832031 C 221.183594 97.242188 221.109375 96.648438 221.097656 96.046875 C 221.082031 95.445312 221.125 94.84375 221.226562 94.25 C 221.332031 93.660156 221.492188 93.082031 221.707031 92.519531 C 221.925781 91.957031 222.195312 91.421875 222.515625 90.910156 C 222.839844 90.402344 223.207031 89.929688 223.621094 89.492188 C 224.039062 89.058594 224.492188 88.664062 224.984375 88.320312 C 225.476562 87.972656 226 87.675781 226.550781 87.433594 C 227.101562 87.1875 227.671875 87 228.257812 86.867188 C 228.84375 86.734375 229.441406 86.664062 230.042969 86.648438 C 230.644531 86.632812 231.242188 86.675781 231.835938 86.78125 C 232.429688 86.882812 233.007812 87.042969 233.570312 87.261719 C 234.132812 87.476562 234.667969 87.746094 235.175781 88.070312 C 235.6875 88.390625 236.160156 88.757812 236.59375 89.175781 C 237.03125 89.589844 237.421875 90.042969 237.769531 90.535156 C 238.117188 91.03125 238.414062 91.550781 238.65625 92.101562 C 238.902344 92.652344 239.089844 93.222656 239.21875 93.808594 C 239.351562 94.398438 239.425781 94.992188 239.441406 95.59375 C 239.457031 96.199219 239.410156 96.796875 239.308594 97.390625 C 239.207031 97.984375 239.046875 98.558594 238.828125 99.121094 Z M 238.828125 99.121094 "
                  clip-rule="nonzero"/>
        </clipPath>
        <clipPath id="9f17203b47">
            <path d="M 303 248 L 333 248 L 333 278 L 303 278 Z M 303 248 " clip-rule="nonzero"/>
        </clipPath>
        <clipPath id="98b77b68d9">
            <path d="M 74.832031 26.03125 L 379.222656 143.441406 L 299.867188 349.167969 L -4.523438 231.757812 Z M 74.832031 26.03125 "
                  clip-rule="nonzero"/>
        </clipPath>
        <clipPath id="e1b09fdc74">
            <path d="M 74.832031 26.03125 L 379.222656 143.441406 L 299.867188 349.167969 L -4.523438 231.757812 Z M 74.832031 26.03125 "
                  clip-rule="nonzero"/>
        </clipPath>
        <clipPath id="d81960fcd3">
            <path d="M 331.179688 267.988281 C 330.835938 268.875 330.410156 269.722656 329.902344 270.523438 C 329.394531 271.328125 328.8125 272.074219 328.15625 272.761719 C 327.5 273.449219 326.785156 274.066406 326.007812 274.613281 C 325.230469 275.160156 324.410156 275.628906 323.539062 276.011719 C 322.671875 276.398438 321.773438 276.695312 320.84375 276.902344 C 319.917969 277.113281 318.980469 277.226562 318.03125 277.25 C 317.078125 277.273438 316.136719 277.203125 315.199219 277.042969 C 314.265625 276.878906 313.351562 276.628906 312.464844 276.285156 C 311.578125 275.941406 310.734375 275.519531 309.929688 275.007812 C 309.128906 274.5 308.382812 273.917969 307.695312 273.265625 C 307.007812 272.609375 306.386719 271.894531 305.839844 271.117188 C 305.292969 270.339844 304.828125 269.515625 304.441406 268.648438 C 304.058594 267.777344 303.761719 266.878906 303.550781 265.953125 C 303.34375 265.027344 303.226562 264.085938 303.203125 263.136719 C 303.179688 262.1875 303.25 261.242188 303.414062 260.308594 C 303.574219 259.371094 303.828125 258.460938 304.171875 257.574219 C 304.511719 256.6875 304.9375 255.839844 305.445312 255.039062 C 305.953125 254.234375 306.535156 253.488281 307.191406 252.800781 C 307.847656 252.113281 308.5625 251.496094 309.339844 250.949219 C 310.117188 250.402344 310.941406 249.933594 311.808594 249.550781 C 312.675781 249.164062 313.574219 248.867188 314.503906 248.660156 C 315.429688 248.449219 316.367188 248.335938 317.320312 248.3125 C 318.269531 248.289062 319.210938 248.359375 320.148438 248.519531 C 321.085938 248.683594 321.996094 248.933594 322.882812 249.277344 C 323.769531 249.621094 324.613281 250.042969 325.417969 250.554688 C 326.21875 251.0625 326.964844 251.644531 327.652344 252.296875 C 328.34375 252.953125 328.960938 253.671875 329.507812 254.445312 C 330.054688 255.222656 330.519531 256.046875 330.90625 256.914062 C 331.292969 257.785156 331.589844 258.683594 331.796875 259.609375 C 332.003906 260.539062 332.121094 261.476562 332.144531 262.425781 C 332.167969 263.375 332.097656 264.320312 331.933594 265.253906 C 331.773438 266.191406 331.519531 267.101562 331.179688 267.988281 Z M 331.179688 267.988281 "
                  clip-rule="nonzero"/>
        </clipPath>
    </defs>
    <g clip-path="url(#a81fc73d85)">
        <g clip-path="url(#14ea6b9e24)">
            <g clip-path="url(#dc5b618bfb)">
                <g clip-path="url(#b2132f8570)">
                    <path fill="#4b5ae4"
                          d="M 55.339844 -10.816406 L -60.867188 290.457031 L 316.058594 435.847656 L 432.265625 134.574219 Z M 55.339844 -10.816406 "
                          fill-opacity="1" fill-rule="nonzero"/>
                </g>
            </g>
        </g>
    </g>
    <g clip-path="url(#4d3a293973)">
        <g clip-path="url(#218c4c3d4d)">
            <g clip-path="url(#ba2df17901)">
                <g clip-path="url(#3b5c217e91)">
                    <path fill="#4b5ae4"
                          d="M 125.632812 78.722656 L 111.304688 115.871094 L 148.453125 130.199219 L 162.78125 93.050781 Z M 125.632812 78.722656 "
                          fill-opacity="1" fill-rule="nonzero"/>
                </g>
            </g>
        </g>
    </g>
    <g clip-path="url(#81854ad435)">
        <g clip-path="url(#a64febaf56)">
            <g clip-path="url(#1fb97e5a89)">
                <g clip-path="url(#65fdd6299a)">
                    <path fill="#4b5ae4"
                          d="M 223.460938 80.464844 L 214.910156 102.628906 L 237.074219 111.175781 L 245.625 89.011719 Z M 223.460938 80.464844 "
                          fill-opacity="1" fill-rule="nonzero"/>
                </g>
            </g>
        </g>
    </g>
    <g clip-path="url(#9f17203b47)">
        <g clip-path="url(#98b77b68d9)">
            <g clip-path="url(#e1b09fdc74)">
                <g clip-path="url(#d81960fcd3)">
                    <path fill="#4b5ae4"
                          d="M 306.9375 238.554688 L 293.449219 273.519531 L 328.414062 287.007812 L 341.898438 252.042969 Z M 306.9375 238.554688 "
                          fill-opacity="1" fill-rule="nonzero"/>
                </g>
            </g>
        </g>
    </g>
    <g fill="#fcfdf2" fill-opacity="1">
        <g transform="translate(49.095707, 236.616688)">
            <g>
                <path d="M 0.515625 -13.1875 C -2.367188 -16.300781 -4.921875 -19.898438 -7.140625 -23.984375 C -9.359375 -28.066406 -11.195312 -32.332031 -12.65625 -36.78125 C -14.113281 -41.226562 -15.132812 -45.609375 -15.71875 -49.921875 C -16.3125 -54.242188 -16.40625 -58.164062 -16 -61.6875 C -15.78125 -63.625 -15.203125 -65.554688 -14.265625 -67.484375 C -13.335938 -69.410156 -12.144531 -71.132812 -10.6875 -72.65625 C -9.226562 -74.175781 -7.597656 -75.273438 -5.796875 -75.953125 C -5.128906 -76.191406 -4.703125 -76.34375 -4.515625 -76.40625 C -4.335938 -76.476562 -4.160156 -76.546875 -3.984375 -76.609375 C -3.804688 -76.679688 -3.382812 -76.84375 -2.71875 -77.09375 C 0.363281 -78.25 3.21875 -78.769531 5.84375 -78.65625 C 8.46875 -78.539062 10.628906 -77.90625 12.328125 -76.75 C 14.035156 -75.59375 14.945312 -74.039062 15.0625 -72.09375 C 15.1875 -70.832031 14.710938 -69.796875 13.640625 -68.984375 C 12.566406 -68.171875 11.25 -67.472656 9.6875 -66.890625 C 8.539062 -66.453125 7.390625 -66.066406 6.234375 -65.734375 C 5.085938 -65.410156 4.035156 -65.066406 3.078125 -64.703125 C 2.234375 -64.390625 1.550781 -64.050781 1.03125 -63.6875 C 0.507812 -63.320312 0.34375 -62.898438 0.53125 -62.421875 C 0.757812 -61.609375 1.46875 -61.269531 2.65625 -61.40625 C 3.851562 -61.539062 5.257812 -61.820312 6.875 -62.25 C 8.5 -62.6875 10.179688 -63.023438 11.921875 -63.265625 C 13.660156 -63.515625 15.25 -63.359375 16.6875 -62.796875 C 18.132812 -62.242188 19.222656 -61 19.953125 -59.0625 C 20.554688 -57.445312 20.617188 -56.117188 20.140625 -55.078125 C 19.671875 -54.035156 18.863281 -53.164062 17.71875 -52.46875 C 16.582031 -51.769531 15.34375 -51.179688 14 -50.703125 C 12.664062 -50.234375 11.390625 -49.734375 10.171875 -49.203125 C 8.960938 -48.679688 8.0625 -48.054688 7.46875 -47.328125 C 6.882812 -46.597656 6.8125 -45.660156 7.25 -44.515625 C 8.082031 -42.273438 9.539062 -40.753906 11.625 -39.953125 C 13.71875 -39.160156 16.148438 -39.28125 18.921875 -40.3125 C 19.171875 -40.40625 19.429688 -40.503906 19.703125 -40.609375 C 19.972656 -40.710938 20.21875 -40.84375 20.4375 -41 C 20.5625 -41.039062 20.710938 -41.09375 20.890625 -41.15625 C 21.066406 -41.226562 21.210938 -41.285156 21.328125 -41.328125 C 23.628906 -42.179688 25.828125 -42.191406 27.921875 -41.359375 C 30.023438 -40.535156 31.847656 -39.15625 33.390625 -37.21875 C 34.941406 -35.289062 36.109375 -33.050781 36.890625 -30.5 C 37.679688 -27.945312 37.914062 -25.351562 37.59375 -22.71875 C 37.28125 -20.082031 36.300781 -17.648438 34.65625 -15.421875 C 33.019531 -13.191406 30.515625 -11.441406 27.140625 -10.171875 L 18.71875 -7.015625 C 17.207031 -6.453125 15.34375 -6.320312 13.125 -6.625 C 10.914062 -6.9375 8.691406 -7.648438 6.453125 -8.765625 C 4.210938 -9.878906 2.234375 -11.351562 0.515625 -13.1875 Z M 0.515625 -13.1875 "/>
            </g>
        </g>
    </g>
    <g fill="#fcfdf2" fill-opacity="1">
        <g transform="translate(87.396913, 221.389656)">
            <g>
                <path d="M 15.109375 -1.3125 C 11.773438 -1.019531 9.109375 -1.171875 7.109375 -1.765625 C 5.117188 -2.367188 3.625 -3.242188 2.625 -4.390625 C 1.625 -5.535156 0.953125 -6.785156 0.609375 -8.140625 C 0.265625 -9.503906 0.0390625 -10.796875 -0.0625 -12.015625 C -0.238281 -14.066406 -0.1875 -16.253906 0.09375 -18.578125 C 0.375 -20.898438 0.71875 -23.242188 1.125 -25.609375 C 1.53125 -27.972656 1.804688 -30.222656 1.953125 -32.359375 C 2.066406 -34.691406 1.921875 -37.070312 1.515625 -39.5 C 1.117188 -41.925781 0.722656 -44.253906 0.328125 -46.484375 C 0.191406 -47.378906 -0.0234375 -48.648438 -0.328125 -50.296875 C -0.640625 -51.953125 -0.878906 -53.726562 -1.046875 -55.625 C -1.210938 -57.519531 -1.160156 -59.367188 -0.890625 -61.171875 C -0.617188 -62.972656 -0.0234375 -64.476562 0.890625 -65.6875 C 1.816406 -66.894531 3.242188 -67.582031 5.171875 -67.75 C 6.390625 -67.851562 7.644531 -67.71875 8.9375 -67.34375 C 10.226562 -66.96875 11.003906 -66.789062 11.265625 -66.8125 C 11.710938 -66.914062 12.195312 -67.101562 12.71875 -67.375 C 13.25 -67.65625 14.128906 -67.960938 15.359375 -68.296875 C 16.585938 -68.628906 18.394531 -68.898438 20.78125 -69.109375 C 23.019531 -69.296875 25.410156 -69.09375 27.953125 -68.5 C 30.492188 -67.90625 32.882812 -66.785156 35.125 -65.140625 C 37.363281 -63.503906 39.210938 -61.164062 40.671875 -58.125 C 42.140625 -55.082031 42.921875 -51.175781 43.015625 -46.40625 C 43.160156 -41.632812 42.066406 -37.753906 39.734375 -34.765625 C 37.410156 -31.785156 33.804688 -30.085938 28.921875 -29.671875 C 26.554688 -29.460938 24.65625 -29.617188 23.21875 -30.140625 C 21.789062 -30.660156 20.765625 -31.179688 20.140625 -31.703125 C 19.515625 -32.234375 19.144531 -32.363281 19.03125 -32.09375 C 18.925781 -31.832031 19.296875 -31.085938 20.140625 -29.859375 C 20.992188 -28.640625 22.019531 -27.097656 23.21875 -25.234375 C 24.414062 -23.367188 25.523438 -21.378906 26.546875 -19.265625 C 27.578125 -17.160156 28.179688 -15.078125 28.359375 -13.015625 C 28.578125 -11.234375 28.289062 -9.5 27.5 -7.8125 C 26.707031 -6.132812 25.3125 -4.707031 23.3125 -3.53125 C 21.3125 -2.351562 18.578125 -1.613281 15.109375 -1.3125 Z M 21.5625 -60.0625 C 20.664062 -59.914062 20.035156 -59.304688 19.671875 -58.234375 C 19.304688 -57.171875 19.171875 -55.914062 19.265625 -54.46875 C 19.359375 -53.03125 19.628906 -51.613281 20.078125 -50.21875 C 20.523438 -48.832031 21.160156 -47.691406 21.984375 -46.796875 C 22.804688 -45.910156 23.726562 -45.507812 24.75 -45.59375 C 25.070312 -45.625 25.328125 -45.675781 25.515625 -45.75 C 26.765625 -46.113281 27.597656 -46.847656 28.015625 -47.953125 C 28.441406 -49.066406 28.546875 -50.320312 28.328125 -51.71875 C 28.117188 -53.125 27.664062 -54.472656 26.96875 -55.765625 C 26.269531 -57.066406 25.460938 -58.128906 24.546875 -58.953125 C 23.640625 -59.785156 22.707031 -60.160156 21.75 -60.078125 C 21.6875 -60.066406 21.65625 -60.0625 21.65625 -60.0625 C 21.65625 -60.0625 21.625 -60.0625 21.5625 -60.0625 Z M 21.5625 -60.0625 "/>
            </g>
        </g>
    </g>
    <g fill="#fcfdf2" fill-opacity="1">
        <g transform="translate(130.041326, 217.163403)">
            <g>
                <path d="M 7.0625 -32.796875 C 8.34375 -39.691406 10.273438 -45.4375 12.859375 -50.03125 C 15.453125 -54.632812 18.523438 -57.960938 22.078125 -60.015625 C 25.640625 -62.078125 29.515625 -62.71875 33.703125 -61.9375 C 36.992188 -61.320312 39.785156 -59.96875 42.078125 -57.875 C 44.378906 -55.78125 46.191406 -53.1875 47.515625 -50.09375 C 48.835938 -47 49.738281 -43.570312 50.21875 -39.8125 C 50.707031 -36.050781 50.753906 -32.238281 50.359375 -28.375 C 49.929688 -23.945312 48.96875 -19.628906 47.46875 -15.421875 C 45.96875 -11.210938 43.988281 -7.515625 41.53125 -4.328125 C 39.082031 -1.148438 36.171875 1.21875 32.796875 2.78125 C 29.421875 4.351562 25.644531 4.753906 21.46875 3.984375 C 18.4375 3.421875 15.847656 1.941406 13.703125 -0.453125 C 11.554688 -2.847656 9.863281 -5.816406 8.625 -9.359375 C 7.382812 -12.898438 6.628906 -16.707031 6.359375 -20.78125 C 6.097656 -24.851562 6.332031 -28.859375 7.0625 -32.796875 Z M 31.703125 -51.203125 C 30.617188 -51.398438 29.554688 -50.992188 28.515625 -49.984375 C 27.484375 -48.972656 26.554688 -47.570312 25.734375 -45.78125 C 24.921875 -44 24.28125 -42.050781 23.8125 -39.9375 C 23.351562 -37.832031 23.171875 -35.804688 23.265625 -33.859375 C 23.367188 -31.910156 23.832031 -30.253906 24.65625 -28.890625 C 25.488281 -27.523438 26.757812 -26.679688 28.46875 -26.359375 C 29.988281 -26.078125 31.253906 -26.445312 32.265625 -27.46875 C 33.273438 -28.5 34.078125 -29.921875 34.671875 -31.734375 C 35.265625 -33.554688 35.648438 -35.550781 35.828125 -37.71875 C 36.003906 -39.882812 35.96875 -41.957031 35.71875 -43.9375 C 35.46875 -45.914062 35.003906 -47.570312 34.328125 -48.90625 C 33.648438 -50.238281 32.773438 -51.003906 31.703125 -51.203125 Z M 31.703125 -51.203125 "/>
            </g>
        </g>
    </g>
    <g fill="#fcfdf2" fill-opacity="1">
        <g transform="translate(187.447123, 229.481941)">
            <g>
                <path d="M 7.25 -0.09375 C 5.25 -0.0625 3.640625 -1.132812 2.421875 -3.3125 C 1.203125 -5.488281 0.710938 -8.847656 0.953125 -13.390625 C 1.191406 -17.929688 2.394531 -23.726562 4.5625 -30.78125 C 5.988281 -35.363281 7.023438 -40.023438 7.671875 -44.765625 C 8.328125 -49.515625 8.804688 -53.96875 9.109375 -58.125 C 9.421875 -62.289062 9.753906 -65.789062 10.109375 -68.625 C 10.210938 -69.65625 10.742188 -70.707031 11.703125 -71.78125 C 12.660156 -72.863281 14.234375 -73.414062 16.421875 -73.4375 C 17.898438 -73.457031 19.109375 -73.066406 20.046875 -72.265625 C 20.992188 -71.472656 21.703125 -70.597656 22.171875 -69.640625 C 22.359375 -69.191406 22.539062 -68.191406 22.71875 -66.640625 C 22.90625 -65.097656 23.117188 -63.363281 23.359375 -61.4375 C 23.609375 -59.507812 23.921875 -57.707031 24.296875 -56.03125 C 24.671875 -54.363281 25.15625 -53.179688 25.75 -52.484375 C 26.34375 -51.785156 27.054688 -51.28125 27.890625 -50.96875 C 28.734375 -50.65625 29.578125 -50.503906 30.421875 -50.515625 C 31.316406 -50.523438 32.195312 -50.710938 33.0625 -51.078125 C 33.925781 -51.441406 34.644531 -51.945312 35.21875 -52.59375 C 35.789062 -53.3125 36.164062 -54.363281 36.34375 -55.75 C 36.519531 -57.144531 36.613281 -58.675781 36.625 -60.34375 C 36.632812 -62.019531 36.628906 -63.628906 36.609375 -65.171875 C 36.597656 -66.722656 36.648438 -67.984375 36.765625 -68.953125 C 36.878906 -69.984375 37.425781 -71.035156 38.40625 -72.109375 C 39.394531 -73.179688 40.984375 -73.734375 43.171875 -73.765625 C 44.660156 -73.773438 45.890625 -73.398438 46.859375 -72.640625 C 47.835938 -71.878906 48.523438 -70.984375 48.921875 -69.953125 C 49.316406 -69.054688 49.675781 -67.253906 50 -64.546875 C 50.320312 -61.847656 50.710938 -58.695312 51.171875 -55.09375 C 51.628906 -51.5 52.203125 -47.835938 52.890625 -44.109375 C 53.585938 -40.390625 54.46875 -37.050781 55.53125 -34.09375 C 56.601562 -31.082031 57.59375 -28.003906 58.5 -24.859375 C 59.40625 -21.710938 60.066406 -18.691406 60.484375 -15.796875 C 60.910156 -12.898438 60.941406 -10.320312 60.578125 -8.0625 C 60.222656 -5.8125 59.328125 -4.015625 57.890625 -2.671875 C 56.460938 -1.335938 54.332031 -0.648438 51.5 -0.609375 L 40.671875 -0.484375 C 39.128906 -0.460938 37.707031 -0.828125 36.40625 -1.578125 C 35.101562 -2.335938 34.132812 -3.679688 33.5 -5.609375 C 32.875 -7.535156 32.703125 -10.191406 32.984375 -13.578125 C 33.265625 -16.972656 34.175781 -21.320312 35.71875 -26.625 C 36.15625 -27.96875 36.441406 -29.378906 36.578125 -30.859375 C 36.722656 -32.347656 36.738281 -33.65625 36.625 -34.78125 C 36.519531 -35.90625 36.304688 -36.660156 35.984375 -37.046875 C 35.660156 -37.421875 34.976562 -37.703125 33.9375 -37.890625 C 32.90625 -38.078125 31.8125 -38.164062 30.65625 -38.15625 C 29.425781 -38.132812 28.265625 -38.019531 27.171875 -37.8125 C 26.085938 -37.601562 25.320312 -37.300781 24.875 -36.90625 C 24.238281 -36.269531 24.039062 -35.238281 24.28125 -33.8125 C 24.519531 -32.394531 24.742188 -31.238281 24.953125 -30.34375 C 25.628906 -27.644531 26.304688 -24.882812 26.984375 -22.0625 C 27.660156 -19.238281 28.128906 -16.535156 28.390625 -13.953125 C 28.648438 -11.378906 28.5625 -9.0625 28.125 -7 C 27.695312 -4.9375 26.765625 -3.300781 25.328125 -2.09375 C 23.898438 -0.882812 21.769531 -0.257812 18.9375 -0.21875 Z M 7.25 -0.09375 "/>
            </g>
        </g>
    </g>
    <g fill="#fcfdf2" fill-opacity="1">
        <g transform="translate(254.770637, 227.863767)">
            <g>
                <path d="M 7.546875 -2.09375 C 5.742188 -1.59375 4.257812 -1.582031 3.09375 -2.0625 C 1.925781 -2.539062 1.007812 -3.304688 0.34375 -4.359375 C -0.3125 -5.410156 -0.789062 -6.546875 -1.09375 -7.765625 C -1.394531 -8.984375 -1.570312 -10.050781 -1.625 -10.96875 C -1.90625 -14.632812 -1.75 -18.351562 -1.15625 -22.125 C -0.5625 -25.90625 -0.164062 -29.597656 0.03125 -33.203125 C 0.164062 -36.097656 0.234375 -38.9375 0.234375 -41.71875 C 0.234375 -44.5 0.269531 -47.328125 0.34375 -50.203125 C 0.34375 -50.953125 0.335938 -52.375 0.328125 -54.46875 C 0.316406 -56.5625 0.398438 -58.972656 0.578125 -61.703125 C 0.753906 -64.429688 1.160156 -67.066406 1.796875 -69.609375 C 2.429688 -72.160156 3.425781 -74.226562 4.78125 -75.8125 C 5.789062 -77.03125 7.222656 -77.894531 9.078125 -78.40625 C 10.441406 -78.78125 11.832031 -78.875 13.25 -78.6875 C 14.675781 -78.507812 15.847656 -77.984375 16.765625 -77.109375 C 20.367188 -73.960938 23.378906 -70.367188 25.796875 -66.328125 C 28.222656 -62.285156 30.75 -58.285156 33.375 -54.328125 C 34.757812 -52.253906 36.5 -50.015625 38.59375 -47.609375 C 40.695312 -45.210938 42.820312 -42.796875 44.96875 -40.359375 C 47.125 -37.921875 49.03125 -35.507812 50.6875 -33.125 C 52.34375 -30.738281 53.492188 -28.5 54.140625 -26.40625 C 54.628906 -24.863281 54.914062 -23.21875 55 -21.46875 C 55.082031 -19.726562 54.84375 -18.175781 54.28125 -16.8125 C 53.71875 -15.457031 52.660156 -14.566406 51.109375 -14.140625 L 37.796875 -10.453125 C 36.304688 -10.046875 34.957031 -10.441406 33.75 -11.640625 C 32.550781 -12.847656 31.484375 -14.539062 30.546875 -16.71875 C 29.617188 -18.894531 28.789062 -21.285156 28.0625 -23.890625 C 27.34375 -26.503906 26.734375 -29.015625 26.234375 -31.421875 C 25.734375 -33.828125 25.34375 -35.835938 25.0625 -37.453125 C 24.78125 -39.078125 24.578125 -40.003906 24.453125 -40.234375 C 24.191406 -40.703125 23.625 -40.945312 22.75 -40.96875 C 21.875 -41 20.910156 -40.867188 19.859375 -40.578125 C 18.796875 -40.285156 17.789062 -39.859375 16.84375 -39.296875 C 15.90625 -38.734375 15.363281 -38.097656 15.21875 -37.390625 C 15.1875 -37.242188 15.582031 -36.460938 16.40625 -35.046875 C 17.226562 -33.640625 18.242188 -31.832031 19.453125 -29.625 C 20.671875 -27.425781 21.820312 -25.09375 22.90625 -22.625 C 24 -20.15625 24.8125 -17.757812 25.34375 -15.4375 C 25.882812 -13.113281 25.90625 -11.097656 25.40625 -9.390625 C 24.914062 -7.679688 23.679688 -6.550781 21.703125 -6 Z M 11.96875 -67.265625 C 11.070312 -66.878906 10.46875 -65.972656 10.15625 -64.546875 C 9.84375 -63.128906 9.769531 -61.507812 9.9375 -59.6875 C 10.113281 -57.863281 10.390625 -56.148438 10.765625 -54.546875 C 11.140625 -52.953125 11.53125 -51.804688 11.9375 -51.109375 C 12.300781 -50.484375 12.925781 -50.085938 13.8125 -49.921875 C 14.695312 -49.765625 15.597656 -49.8125 16.515625 -50.0625 C 17.578125 -50.363281 18.535156 -50.882812 19.390625 -51.625 C 20.253906 -52.363281 20.671875 -53.160156 20.640625 -54.015625 C 20.628906 -54.804688 20.320312 -55.988281 19.71875 -57.5625 C 19.113281 -59.144531 18.351562 -60.742188 17.4375 -62.359375 C 16.519531 -63.972656 15.570312 -65.28125 14.59375 -66.28125 C 13.613281 -67.28125 12.738281 -67.609375 11.96875 -67.265625 Z M 11.96875 -67.265625 "/>
            </g>
        </g>
    </g>
    <g fill="#fcfdf2" fill-opacity="1">
        <g transform="translate(166.097043, 257.539286)">
            <g>
                <path d="M 16.921875 0 L 7.390625 8.390625 L 6.296875 7.15625 L 10.609375 3.359375 L 6.34375 -1.5 L 2.03125 2.296875 L 0.921875 1.0625 L 10.453125 -7.328125 L 11.5625 -6.09375 L 7.375 -2.40625 L 11.640625 2.453125 L 15.828125 -1.234375 Z M 16.921875 0 "/>
            </g>
        </g>
    </g>
    <g fill="#fcfdf2" fill-opacity="1">
        <g transform="translate(175.62052, 268.04622)">
            <g>
                <path d="M 3.515625 -3.671875 C 4.097656 -4.515625 4.773438 -5.132812 5.546875 -5.53125 C 6.328125 -5.925781 7.132812 -6.09375 7.96875 -6.03125 C 8.800781 -5.96875 9.582031 -5.6875 10.3125 -5.1875 C 11.03125 -4.6875 11.546875 -4.097656 11.859375 -3.421875 C 12.179688 -2.742188 12.304688 -2.082031 12.234375 -1.4375 L 13.28125 -2.9375 L 14.65625 -1.984375 L 8.953125 6.21875 L 7.578125 5.265625 L 8.640625 3.734375 C 8.046875 4.035156 7.367188 4.15625 6.609375 4.09375 C 5.859375 4.03125 5.128906 3.753906 4.421875 3.265625 C 3.691406 2.753906 3.15625 2.117188 2.8125 1.359375 C 2.476562 0.597656 2.363281 -0.222656 2.46875 -1.109375 C 2.582031 -1.992188 2.929688 -2.847656 3.515625 -3.671875 Z M 10.4375 1.140625 C 10.863281 0.523438 11.113281 -0.09375 11.1875 -0.71875 C 11.257812 -1.351562 11.164062 -1.9375 10.90625 -2.46875 C 10.65625 -3 10.273438 -3.445312 9.765625 -3.8125 C 9.265625 -4.15625 8.71875 -4.351562 8.125 -4.40625 C 7.539062 -4.457031 6.96875 -4.34375 6.40625 -4.0625 C 5.84375 -3.78125 5.347656 -3.328125 4.921875 -2.703125 C 4.484375 -2.078125 4.222656 -1.445312 4.140625 -0.8125 C 4.066406 -0.175781 4.15625 0.40625 4.40625 0.9375 C 4.65625 1.476562 5.03125 1.921875 5.53125 2.265625 C 6.039062 2.628906 6.59375 2.832031 7.1875 2.875 C 7.789062 2.925781 8.375 2.804688 8.9375 2.515625 C 9.507812 2.222656 10.007812 1.765625 10.4375 1.140625 Z M 10.4375 1.140625 "/>
            </g>
        </g>
    </g>
    <g fill="#fcfdf2" fill-opacity="1">
        <g transform="translate(186.948165, 275.463717)">
            <g>
                <path d="M 6.21875 -6.375 C 6.707031 -6.769531 7.265625 -7.003906 7.890625 -7.078125 C 8.515625 -7.148438 9.179688 -7.03125 9.890625 -6.71875 L 9.1875 -5.15625 L 8.78125 -5.328125 C 7.09375 -6.085938 5.835938 -5.546875 5.015625 -3.703125 L 2.796875 1.25 L 1.28125 0.578125 L 5.359375 -8.53125 L 6.875 -7.859375 Z M 6.21875 -6.375 "/>
            </g>
        </g>
    </g>
    <g fill="#fcfdf2" fill-opacity="1">
        <g transform="translate(194.094026, 278.64336)">
            <g>
                <path d="M 2.90625 -0.59375 L 7.625 0.71875 L 7.265625 2.03125 L 0.71875 0.203125 L 1.078125 -1.109375 L 7.71875 -6.796875 L 3.078125 -8.09375 L 3.453125 -9.390625 L 9.921875 -7.578125 L 9.546875 -6.28125 Z M 2.90625 -0.59375 "/>
            </g>
        </g>
    </g>
    <g fill="#fcfdf2" fill-opacity="1">
        <g transform="translate(202.997797, 280.966355)">
            <g/>
        </g>
    </g>
    <g fill="#fcfdf2" fill-opacity="1">
        <g transform="translate(208.844222, 281.957888)">
            <g>
                <path d="M 5.421875 0.078125 C 4.585938 0.0859375 3.835938 -0.0507812 3.171875 -0.34375 C 2.515625 -0.632812 1.992188 -1.039062 1.609375 -1.5625 C 1.234375 -2.09375 1.03125 -2.707031 1 -3.40625 L 2.78125 -3.40625 C 2.84375 -2.820312 3.085938 -2.328125 3.515625 -1.921875 C 3.953125 -1.515625 4.582031 -1.316406 5.40625 -1.328125 C 6.195312 -1.328125 6.820312 -1.523438 7.28125 -1.921875 C 7.738281 -2.316406 7.960938 -2.828125 7.953125 -3.453125 C 7.953125 -3.941406 7.8125 -4.335938 7.53125 -4.640625 C 7.257812 -4.941406 6.921875 -5.164062 6.515625 -5.3125 C 6.117188 -5.46875 5.582031 -5.640625 4.90625 -5.828125 C 4.070312 -6.035156 3.398438 -6.242188 2.890625 -6.453125 C 2.378906 -6.671875 1.941406 -7.007812 1.578125 -7.46875 C 1.222656 -7.9375 1.039062 -8.566406 1.03125 -9.359375 C 1.03125 -10.054688 1.203125 -10.671875 1.546875 -11.203125 C 1.898438 -11.734375 2.390625 -12.144531 3.015625 -12.4375 C 3.648438 -12.738281 4.378906 -12.894531 5.203125 -12.90625 C 6.398438 -12.914062 7.378906 -12.625 8.140625 -12.03125 C 8.898438 -11.445312 9.335938 -10.660156 9.453125 -9.671875 L 7.625 -9.65625 C 7.5625 -10.144531 7.300781 -10.570312 6.84375 -10.9375 C 6.394531 -11.300781 5.800781 -11.484375 5.0625 -11.484375 C 4.375 -11.472656 3.8125 -11.285156 3.375 -10.921875 C 2.945312 -10.554688 2.734375 -10.054688 2.734375 -9.421875 C 2.734375 -8.953125 2.863281 -8.570312 3.125 -8.28125 C 3.394531 -8 3.71875 -7.78125 4.09375 -7.625 C 4.476562 -7.476562 5.019531 -7.316406 5.71875 -7.140625 C 6.550781 -6.910156 7.222656 -6.679688 7.734375 -6.453125 C 8.253906 -6.234375 8.695312 -5.890625 9.0625 -5.421875 C 9.4375 -4.960938 9.625 -4.335938 9.625 -3.546875 C 9.632812 -2.921875 9.476562 -2.332031 9.15625 -1.78125 C 8.832031 -1.238281 8.347656 -0.796875 7.703125 -0.453125 C 7.054688 -0.109375 6.296875 0.0664062 5.421875 0.078125 Z M 5.421875 0.078125 "/>
            </g>
        </g>
    </g>
    <g fill="#fcfdf2" fill-opacity="1">
        <g transform="translate(220.666455, 281.594521)">
            <g>
                <path d="M 1.859375 -9.09375 L 2.890625 -3.296875 C 2.972656 -2.816406 3.132812 -2.5 3.375 -2.34375 C 3.613281 -2.1875 3.984375 -2.148438 4.484375 -2.234375 L 5.6875 -2.453125 L 5.9375 -1.0625 L 4.453125 -0.796875 C 3.554688 -0.640625 2.84375 -0.726562 2.3125 -1.0625 C 1.78125 -1.40625 1.425781 -2.050781 1.25 -3 L 0.21875 -8.796875 L -1.046875 -8.5625 L -1.296875 -9.90625 L -0.03125 -10.140625 L -0.46875 -12.609375 L 1.171875 -12.90625 L 1.609375 -10.4375 L 4.171875 -10.890625 L 4.421875 -9.546875 Z M 1.859375 -9.09375 "/>
            </g>
        </g>
    </g>
    <g fill="#fcfdf2" fill-opacity="1">
        <g transform="translate(228.412582, 280.324347)">
            <g>
                <path d="M 6.140625 -12.921875 L 9.609375 -3.5625 L 8.0625 -2.984375 L 7.546875 -4.359375 C 7.421875 -3.773438 7.144531 -3.253906 6.71875 -2.796875 C 6.289062 -2.335938 5.753906 -1.988281 5.109375 -1.75 C 4.390625 -1.488281 3.679688 -1.394531 2.984375 -1.46875 C 2.296875 -1.550781 1.671875 -1.832031 1.109375 -2.3125 C 0.554688 -2.789062 0.117188 -3.460938 -0.203125 -4.328125 L -2.234375 -9.8125 L -0.703125 -10.390625 L 1.25 -5.125 C 1.59375 -4.1875 2.085938 -3.554688 2.734375 -3.234375 C 3.390625 -2.921875 4.117188 -2.914062 4.921875 -3.21875 C 5.753906 -3.519531 6.316406 -4.015625 6.609375 -4.703125 C 6.898438 -5.390625 6.863281 -6.222656 6.5 -7.203125 L 4.59375 -12.34375 Z M 6.140625 -12.921875 "/>
            </g>
        </g>
    </g>
    <g fill="#fcfdf2" fill-opacity="1">
        <g transform="translate(240.722355, 275.606512)">
            <g>
                <path d="M -2.140625 -4.625 C -2.703125 -5.46875 -3.023438 -6.328125 -3.109375 -7.203125 C -3.203125 -8.078125 -3.0625 -8.890625 -2.6875 -9.640625 C -2.320312 -10.390625 -1.765625 -11.007812 -1.015625 -11.5 C -0.367188 -11.9375 0.328125 -12.191406 1.078125 -12.265625 C 1.828125 -12.335938 2.515625 -12.234375 3.140625 -11.953125 L 0.203125 -16.34375 L 1.59375 -17.265625 L 9.078125 -6.046875 L 7.6875 -5.125 L 6.640625 -6.6875 C 6.703125 -6.007812 6.570312 -5.332031 6.25 -4.65625 C 5.925781 -3.988281 5.40625 -3.414062 4.6875 -2.9375 C 3.945312 -2.445312 3.15625 -2.179688 2.3125 -2.140625 C 1.46875 -2.097656 0.65625 -2.289062 -0.125 -2.71875 C -0.90625 -3.144531 -1.578125 -3.78125 -2.140625 -4.625 Z M 4.90625 -9.296875 C 4.488281 -9.921875 4 -10.378906 3.4375 -10.671875 C 2.875 -10.972656 2.296875 -11.101562 1.703125 -11.0625 C 1.109375 -11.019531 0.550781 -10.820312 0.03125 -10.46875 C -0.476562 -10.132812 -0.863281 -9.703125 -1.125 -9.171875 C -1.382812 -8.648438 -1.488281 -8.070312 -1.4375 -7.4375 C -1.382812 -6.8125 -1.148438 -6.1875 -0.734375 -5.5625 C -0.304688 -4.914062 0.1875 -4.441406 0.75 -4.140625 C 1.320312 -3.835938 1.898438 -3.707031 2.484375 -3.75 C 3.078125 -3.789062 3.628906 -3.976562 4.140625 -4.3125 C 4.660156 -4.664062 5.050781 -5.109375 5.3125 -5.640625 C 5.570312 -6.171875 5.671875 -6.753906 5.609375 -7.390625 C 5.554688 -8.023438 5.320312 -8.660156 4.90625 -9.296875 Z M 4.90625 -9.296875 "/>
            </g>
        </g>
    </g>
    <g fill="#fcfdf2" fill-opacity="1">
        <g transform="translate(251.647247, 267.825621)">
            <g>
                <path d="M -6.28125 -10.03125 C -6.519531 -9.8125 -6.789062 -9.703125 -7.09375 -9.703125 C -7.394531 -9.710938 -7.65625 -9.832031 -7.875 -10.0625 C -8.082031 -10.289062 -8.179688 -10.5625 -8.171875 -10.875 C -8.171875 -11.1875 -8.050781 -11.453125 -7.8125 -11.671875 C -7.59375 -11.878906 -7.328125 -11.972656 -7.015625 -11.953125 C -6.710938 -11.941406 -6.457031 -11.820312 -6.25 -11.59375 C -6.03125 -11.363281 -5.925781 -11.097656 -5.9375 -10.796875 C -5.945312 -10.492188 -6.0625 -10.238281 -6.28125 -10.03125 Z M -4.59375 -9.390625 L 2.234375 -2.09375 L 1.03125 -0.953125 L -5.796875 -8.25 Z M -4.59375 -9.390625 "/>
            </g>
        </g>
    </g>
    <g fill="#fcfdf2" fill-opacity="1">
        <g transform="translate(255.858074, 264.15459)">
            <g>
                <path d="M 3.65625 -4.453125 C 3.082031 -3.710938 2.394531 -3.171875 1.59375 -2.828125 C 0.800781 -2.492188 -0.0351562 -2.394531 -0.921875 -2.53125 C -1.804688 -2.664062 -2.65625 -3.050781 -3.46875 -3.6875 C -4.28125 -4.3125 -4.859375 -5.039062 -5.203125 -5.875 C -5.546875 -6.707031 -5.644531 -7.550781 -5.5 -8.40625 C -5.363281 -9.269531 -5.003906 -10.070312 -4.421875 -10.8125 C -3.835938 -11.5625 -3.144531 -12.109375 -2.34375 -12.453125 C -1.550781 -12.804688 -0.71875 -12.921875 0.15625 -12.796875 C 1.039062 -12.671875 1.894531 -12.289062 2.71875 -11.65625 C 3.53125 -11.019531 4.109375 -10.285156 4.453125 -9.453125 C 4.796875 -8.617188 4.894531 -7.757812 4.75 -6.875 C 4.601562 -6 4.238281 -5.191406 3.65625 -4.453125 Z M 2.5 -5.34375 C 2.863281 -5.8125 3.097656 -6.332031 3.203125 -6.90625 C 3.316406 -7.488281 3.25 -8.082031 3 -8.6875 C 2.75 -9.289062 2.3125 -9.835938 1.6875 -10.328125 C 1.050781 -10.816406 0.414062 -11.109375 -0.21875 -11.203125 C -0.863281 -11.296875 -1.445312 -11.222656 -1.96875 -10.984375 C -2.5 -10.753906 -2.945312 -10.40625 -3.3125 -9.9375 C -3.675781 -9.457031 -3.90625 -8.929688 -4 -8.359375 C -4.101562 -7.796875 -4.023438 -7.222656 -3.765625 -6.640625 C -3.503906 -6.066406 -3.054688 -5.535156 -2.421875 -5.046875 C -1.785156 -4.546875 -1.15625 -4.238281 -0.53125 -4.125 C 0.09375 -4.019531 0.660156 -4.078125 1.171875 -4.296875 C 1.691406 -4.523438 2.132812 -4.875 2.5 -5.34375 Z M 2.5 -5.34375 "/>
            </g>
        </g>
    </g>
</svg>